#N canvas 886 211 779 1071 10;
#X obj 33 361 hip~ 3;
#X obj 33 383 clip~ -1 1;
#X obj 215 80 loadbang;
#X obj 215 122 array set \$0-scale;
#X obj 215 143 array define \$0-scale;
#X obj 33 274 /~ 2;
#X obj 33 404 *~ 1;
#X obj 33 339 *~ 0.9;
#X obj 290 -60 vsl 17 127 1 127 0 1 empty empty VELOCITY 0 -9 0 10
-262144 -1 -1 9400 1;
#X obj 290 75 nbx 3 17 1 127 0 0 empty empty empty 0 -8 0 10 -262144
-1 -1 95 256;
#X obj 33 -38 unpack f f;
#X obj 290 97 v \$0-vel;
#X obj 180 -3 v \$0-vel;
#X obj 180 -24 sel 127;
#X obj 33 25 % 5;
#X obj 33 46 tabread \$0-scale;
#X obj 33 67 +;
#X obj 143 32 div 5;
#X obj 143 53 * 12;
#X obj 33 4 t f f;
#X obj 135 122 pack f f f;
#X obj 135 143 s \$0-poly;
#X obj 33 169 r \$0-poly;
#X obj 33 190 route 1;
#X obj 33 -17 + 5;
#X msg 215 101 0 2 5 7 9;
#X obj 135 75 notein;
#X obj 113 232 mtof;
#X obj 113 274 /~ 2;
#X obj 113 169 r \$0-poly;
#X obj 113 211 unpack f f;
#X obj 113 190 route 2;
#X obj 193 232 mtof;
#X obj 193 274 /~ 2;
#X obj 193 169 r \$0-poly;
#X obj 193 211 unpack f f;
#X obj 273 232 mtof;
#X obj 273 274 /~ 2;
#X obj 273 169 r \$0-poly;
#X obj 273 211 unpack f f;
#X obj 193 190 route 3;
#X obj 273 190 route 4;
#X obj 353 232 mtof;
#X obj 353 274 /~ 2;
#X obj 353 169 r \$0-poly;
#X obj 353 211 unpack f f;
#X obj 433 232 mtof;
#X obj 433 274 /~ 2;
#X obj 433 169 r \$0-poly;
#X obj 433 211 unpack f f;
#X obj 353 190 route 5;
#X obj 433 190 route 6;
#X obj 135 101 poly 6 1;
#X obj 33 -80 r \$0-key;
#N canvas 240 74 187 121 keyboard 0;
#N canvas 4 23 491 309 z-m 0;
#X obj 32 120 t b b;
#X msg 51 142 stop;
#X obj 51 164 del 50;
#X msg 51 186 0;
#X obj 32 208 change;
#X obj 32 32 key;
#X obj 32 76 keyup;
#X obj 32 98 sel 122;
#X obj 32 54 sel 122;
#X obj 92 120 t b b;
#X msg 111 142 stop;
#X obj 111 164 del 50;
#X msg 111 186 0;
#X obj 92 208 change;
#X obj 92 32 key;
#X obj 92 76 keyup;
#X obj 152 120 t b b;
#X msg 171 142 stop;
#X obj 171 164 del 50;
#X msg 171 186 0;
#X obj 152 208 change;
#X obj 152 32 key;
#X obj 152 76 keyup;
#X obj 212 120 t b b;
#X msg 231 142 stop;
#X obj 231 164 del 50;
#X msg 231 186 0;
#X obj 212 208 change;
#X obj 212 32 key;
#X obj 212 76 keyup;
#X obj 92 98 sel 120;
#X obj 92 54 sel 120;
#X obj 152 98 sel 99;
#X obj 152 54 sel 99;
#X obj 212 98 sel 118;
#X obj 212 54 sel 118;
#X msg 32 230 1 \$1;
#X obj 272 120 t b b;
#X msg 291 142 stop;
#X obj 291 164 del 50;
#X msg 291 186 0;
#X obj 272 208 change;
#X obj 272 32 key;
#X obj 272 76 keyup;
#X obj 272 98 sel 98;
#X obj 272 54 sel 98;
#X obj 332 120 t b b;
#X msg 351 142 stop;
#X obj 351 164 del 50;
#X msg 351 186 0;
#X obj 332 208 change;
#X obj 332 32 key;
#X obj 332 76 keyup;
#X obj 332 98 sel 110;
#X obj 332 54 sel 110;
#X obj 392 120 t b b;
#X msg 411 142 stop;
#X obj 411 164 del 50;
#X msg 411 186 0;
#X obj 392 208 change;
#X obj 392 32 key;
#X obj 392 76 keyup;
#X obj 392 98 sel 109;
#X obj 392 54 sel 109;
#X msg 92 230 2 \$1;
#X msg 152 230 3 \$1;
#X msg 212 230 4 \$1;
#X msg 272 230 5 \$1;
#X msg 332 230 6 \$1;
#X msg 392 230 7 \$1;
#X msg 32 186 127;
#X msg 92 186 127;
#X msg 152 186 127;
#X msg 212 186 127;
#X msg 272 186 127;
#X msg 332 186 127;
#X msg 392 186 127;
#X obj 32 252 s \$0-key;
#X obj 92 252 s \$0-key;
#X obj 152 252 s \$0-key;
#X obj 212 252 s \$0-key;
#X obj 272 252 s \$0-key;
#X obj 332 252 s \$0-key;
#X obj 392 252 s \$0-key;
#X connect 0 0 70 0;
#X connect 0 1 1 0;
#X connect 1 0 2 0;
#X connect 2 0 3 0;
#X connect 3 0 4 0;
#X connect 4 0 36 0;
#X connect 5 0 8 0;
#X connect 6 0 7 0;
#X connect 7 0 2 0;
#X connect 8 0 0 0;
#X connect 9 0 71 0;
#X connect 9 1 10 0;
#X connect 10 0 11 0;
#X connect 11 0 12 0;
#X connect 12 0 13 0;
#X connect 13 0 64 0;
#X connect 14 0 31 0;
#X connect 15 0 30 0;
#X connect 16 0 72 0;
#X connect 16 1 17 0;
#X connect 17 0 18 0;
#X connect 18 0 19 0;
#X connect 19 0 20 0;
#X connect 20 0 65 0;
#X connect 21 0 33 0;
#X connect 22 0 32 0;
#X connect 23 0 73 0;
#X connect 23 1 24 0;
#X connect 24 0 25 0;
#X connect 25 0 26 0;
#X connect 26 0 27 0;
#X connect 27 0 66 0;
#X connect 28 0 35 0;
#X connect 29 0 34 0;
#X connect 30 0 11 0;
#X connect 31 0 9 0;
#X connect 32 0 18 0;
#X connect 33 0 16 0;
#X connect 34 0 25 0;
#X connect 35 0 23 0;
#X connect 36 0 77 0;
#X connect 37 0 74 0;
#X connect 37 1 38 0;
#X connect 38 0 39 0;
#X connect 39 0 40 0;
#X connect 40 0 41 0;
#X connect 41 0 67 0;
#X connect 42 0 45 0;
#X connect 43 0 44 0;
#X connect 44 0 39 0;
#X connect 45 0 37 0;
#X connect 46 0 75 0;
#X connect 46 1 47 0;
#X connect 47 0 48 0;
#X connect 48 0 49 0;
#X connect 49 0 50 0;
#X connect 50 0 68 0;
#X connect 51 0 54 0;
#X connect 52 0 53 0;
#X connect 53 0 48 0;
#X connect 54 0 46 0;
#X connect 55 0 76 0;
#X connect 55 1 56 0;
#X connect 56 0 57 0;
#X connect 57 0 58 0;
#X connect 58 0 59 0;
#X connect 59 0 69 0;
#X connect 60 0 63 0;
#X connect 61 0 62 0;
#X connect 62 0 57 0;
#X connect 63 0 55 0;
#X connect 64 0 78 0;
#X connect 65 0 79 0;
#X connect 66 0 80 0;
#X connect 67 0 81 0;
#X connect 68 0 82 0;
#X connect 69 0 83 0;
#X connect 70 0 4 0;
#X connect 71 0 13 0;
#X connect 72 0 20 0;
#X connect 73 0 27 0;
#X connect 74 0 41 0;
#X connect 75 0 50 0;
#X connect 76 0 59 0;
#X restore 12 72 pd z-m;
#N canvas 4 23 718 321 a-ñ 0;
#X obj 32 120 t b b;
#X msg 51 142 stop;
#X obj 51 164 del 50;
#X msg 51 186 0;
#X obj 32 208 change;
#X obj 32 32 key;
#X obj 32 76 keyup;
#X obj 92 120 t b b;
#X msg 111 142 stop;
#X obj 111 164 del 50;
#X msg 111 186 0;
#X obj 92 208 change;
#X obj 92 32 key;
#X obj 92 76 keyup;
#X obj 152 120 t b b;
#X msg 171 142 stop;
#X obj 171 164 del 50;
#X msg 171 186 0;
#X obj 152 208 change;
#X obj 152 32 key;
#X obj 152 76 keyup;
#X obj 212 120 t b b;
#X msg 231 142 stop;
#X obj 231 164 del 50;
#X msg 231 186 0;
#X obj 212 208 change;
#X obj 212 32 key;
#X obj 212 76 keyup;
#X obj 272 120 t b b;
#X msg 291 142 stop;
#X obj 291 164 del 50;
#X msg 291 186 0;
#X obj 272 208 change;
#X obj 272 32 key;
#X obj 272 76 keyup;
#X obj 332 120 t b b;
#X msg 351 142 stop;
#X obj 351 164 del 50;
#X msg 351 186 0;
#X obj 332 208 change;
#X obj 332 32 key;
#X obj 332 76 keyup;
#X obj 392 120 t b b;
#X msg 411 142 stop;
#X obj 411 164 del 50;
#X msg 411 186 0;
#X obj 392 208 change;
#X obj 392 32 key;
#X obj 392 76 keyup;
#X obj 32 54 sel 97;
#X obj 32 98 sel 97;
#X obj 92 54 sel 115;
#X obj 152 54 sel 100;
#X obj 212 54 sel 102;
#X obj 272 54 sel 103;
#X obj 332 54 sel 104;
#X obj 392 54 sel 106;
#X obj 452 120 t b b;
#X msg 471 142 stop;
#X obj 471 164 del 50;
#X msg 471 186 0;
#X obj 452 208 change;
#X obj 452 32 key;
#X obj 452 76 keyup;
#X obj 512 120 t b b;
#X msg 531 142 stop;
#X obj 531 164 del 50;
#X msg 531 186 0;
#X obj 512 208 change;
#X obj 512 32 key;
#X obj 512 76 keyup;
#X obj 512 54 sel 108;
#X obj 452 54 sel 107;
#X obj 572 120 t b b;
#X msg 591 142 stop;
#X obj 591 164 del 50;
#X msg 591 186 0;
#X obj 572 208 change;
#X obj 572 32 key;
#X obj 572 76 keyup;
#X obj 572 54 sel 241;
#X obj 92 98 sel 115;
#X obj 152 98 sel 100;
#X obj 212 98 sel 102;
#X obj 272 98 sel 103;
#X obj 332 98 sel 104;
#X obj 392 98 sel 106;
#X obj 452 98 sel 107;
#X obj 512 98 sel 108;
#X obj 572 98 sel 241;
#X msg 32 230 8 \$1;
#X msg 92 230 9 \$1;
#X msg 152 230 10 \$1;
#X msg 212 230 11 \$1;
#X msg 272 230 12 \$1;
#X msg 332 230 13 \$1;
#X msg 392 230 14 \$1;
#X msg 452 230 15 \$1;
#X msg 512 230 16 \$1;
#X msg 572 230 17 \$1;
#X msg 32 186 127;
#X msg 92 186 127;
#X msg 152 186 127;
#X msg 212 186 127;
#X msg 272 186 127;
#X msg 332 186 127;
#X msg 392 186 127;
#X msg 452 186 127;
#X msg 512 186 127;
#X msg 572 186 127;
#X obj 32 252 s \$0-key;
#X obj 92 252 s \$0-key;
#X obj 152 252 s \$0-key;
#X obj 212 252 s \$0-key;
#X obj 272 252 s \$0-key;
#X obj 332 252 s \$0-key;
#X obj 392 252 s \$0-key;
#X obj 452 252 s \$0-key;
#X obj 512 252 s \$0-key;
#X obj 572 252 s \$0-key;
#X connect 0 0 100 0;
#X connect 0 1 1 0;
#X connect 1 0 2 0;
#X connect 2 0 3 0;
#X connect 3 0 4 0;
#X connect 4 0 90 0;
#X connect 5 0 49 0;
#X connect 6 0 50 0;
#X connect 7 0 101 0;
#X connect 7 1 8 0;
#X connect 8 0 9 0;
#X connect 9 0 10 0;
#X connect 10 0 11 0;
#X connect 11 0 91 0;
#X connect 12 0 51 0;
#X connect 13 0 81 0;
#X connect 14 0 102 0;
#X connect 14 1 15 0;
#X connect 15 0 16 0;
#X connect 16 0 17 0;
#X connect 17 0 18 0;
#X connect 18 0 92 0;
#X connect 19 0 52 0;
#X connect 20 0 82 0;
#X connect 21 0 103 0;
#X connect 21 1 22 0;
#X connect 22 0 23 0;
#X connect 23 0 24 0;
#X connect 24 0 25 0;
#X connect 25 0 93 0;
#X connect 26 0 53 0;
#X connect 27 0 83 0;
#X connect 28 0 104 0;
#X connect 28 1 29 0;
#X connect 29 0 30 0;
#X connect 30 0 31 0;
#X connect 31 0 32 0;
#X connect 32 0 94 0;
#X connect 33 0 54 0;
#X connect 34 0 84 0;
#X connect 35 0 105 0;
#X connect 35 1 36 0;
#X connect 36 0 37 0;
#X connect 37 0 38 0;
#X connect 38 0 39 0;
#X connect 39 0 95 0;
#X connect 40 0 55 0;
#X connect 41 0 85 0;
#X connect 42 0 106 0;
#X connect 42 1 43 0;
#X connect 43 0 44 0;
#X connect 44 0 45 0;
#X connect 45 0 46 0;
#X connect 46 0 96 0;
#X connect 47 0 56 0;
#X connect 48 0 86 0;
#X connect 49 0 0 0;
#X connect 50 0 2 0;
#X connect 51 0 7 0;
#X connect 52 0 14 0;
#X connect 53 0 21 0;
#X connect 54 0 28 0;
#X connect 55 0 35 0;
#X connect 56 0 42 0;
#X connect 57 0 107 0;
#X connect 57 1 58 0;
#X connect 58 0 59 0;
#X connect 59 0 60 0;
#X connect 60 0 61 0;
#X connect 61 0 97 0;
#X connect 62 0 72 0;
#X connect 63 0 87 0;
#X connect 64 0 108 0;
#X connect 64 1 65 0;
#X connect 65 0 66 0;
#X connect 66 0 67 0;
#X connect 67 0 68 0;
#X connect 68 0 98 0;
#X connect 69 0 71 0;
#X connect 70 0 88 0;
#X connect 71 0 64 0;
#X connect 72 0 57 0;
#X connect 73 0 109 0;
#X connect 73 1 74 0;
#X connect 74 0 75 0;
#X connect 75 0 76 0;
#X connect 76 0 77 0;
#X connect 77 0 99 0;
#X connect 78 0 80 0;
#X connect 79 0 89 0;
#X connect 80 0 73 0;
#X connect 81 0 9 0;
#X connect 82 0 16 0;
#X connect 83 0 23 0;
#X connect 84 0 30 0;
#X connect 85 0 37 0;
#X connect 86 0 44 0;
#X connect 87 0 59 0;
#X connect 88 0 66 0;
#X connect 89 0 75 0;
#X connect 90 0 110 0;
#X connect 91 0 111 0;
#X connect 92 0 112 0;
#X connect 93 0 113 0;
#X connect 94 0 114 0;
#X connect 95 0 115 0;
#X connect 96 0 116 0;
#X connect 97 0 117 0;
#X connect 98 0 118 0;
#X connect 99 0 119 0;
#X connect 100 0 4 0;
#X connect 101 0 11 0;
#X connect 102 0 18 0;
#X connect 103 0 25 0;
#X connect 104 0 32 0;
#X connect 105 0 39 0;
#X connect 106 0 46 0;
#X connect 107 0 61 0;
#X connect 108 0 68 0;
#X connect 109 0 77 0;
#X restore 12 52 pd a-ñ;
#N canvas 4 23 718 321 q-p 0;
#X obj 32 120 t b b;
#X msg 51 142 stop;
#X obj 51 164 del 50;
#X msg 51 186 0;
#X obj 32 208 change;
#X obj 32 32 key;
#X obj 32 76 keyup;
#X obj 92 120 t b b;
#X msg 111 142 stop;
#X obj 111 164 del 50;
#X msg 111 186 0;
#X obj 92 208 change;
#X obj 92 32 key;
#X obj 92 76 keyup;
#X obj 152 120 t b b;
#X msg 171 142 stop;
#X obj 171 164 del 50;
#X msg 171 186 0;
#X obj 152 208 change;
#X obj 152 32 key;
#X obj 152 76 keyup;
#X obj 212 120 t b b;
#X msg 231 142 stop;
#X obj 231 164 del 50;
#X msg 231 186 0;
#X obj 212 208 change;
#X obj 212 32 key;
#X obj 212 76 keyup;
#X obj 272 120 t b b;
#X msg 291 142 stop;
#X obj 291 164 del 50;
#X msg 291 186 0;
#X obj 272 208 change;
#X obj 272 32 key;
#X obj 272 76 keyup;
#X obj 332 120 t b b;
#X msg 351 142 stop;
#X obj 351 164 del 50;
#X msg 351 186 0;
#X obj 332 208 change;
#X obj 332 32 key;
#X obj 332 76 keyup;
#X obj 392 120 t b b;
#X msg 411 142 stop;
#X obj 411 164 del 50;
#X msg 411 186 0;
#X obj 392 208 change;
#X obj 392 32 key;
#X obj 392 76 keyup;
#X obj 452 120 t b b;
#X msg 471 142 stop;
#X obj 471 164 del 50;
#X msg 471 186 0;
#X obj 452 208 change;
#X obj 452 32 key;
#X obj 452 76 keyup;
#X obj 512 120 t b b;
#X msg 531 142 stop;
#X obj 531 164 del 50;
#X msg 531 186 0;
#X obj 512 208 change;
#X obj 512 32 key;
#X obj 512 76 keyup;
#X obj 572 120 t b b;
#X msg 591 142 stop;
#X obj 591 164 del 50;
#X msg 591 186 0;
#X obj 572 208 change;
#X obj 572 32 key;
#X obj 572 76 keyup;
#X obj 32 54 sel 113;
#X obj 92 54 sel 119;
#X obj 152 54 sel 101;
#X obj 212 54 sel 114;
#X obj 272 54 sel 116;
#X obj 332 54 sel 121;
#X obj 392 54 sel 117;
#X obj 452 54 sel 105;
#X obj 512 54 sel 111;
#X obj 572 54 sel 112;
#X obj 32 98 sel 113;
#X obj 92 98 sel 119;
#X obj 152 98 sel 101;
#X obj 212 98 sel 114;
#X obj 272 98 sel 116;
#X obj 332 98 sel 121;
#X obj 392 98 sel 117;
#X obj 452 98 sel 105;
#X obj 512 98 sel 111;
#X obj 572 98 sel 112;
#X msg 32 230 18 \$1;
#X msg 92 230 19 \$1;
#X msg 152 230 20 \$1;
#X msg 212 230 21 \$1;
#X msg 272 230 22 \$1;
#X msg 332 230 23 \$1;
#X msg 392 230 24 \$1;
#X msg 452 230 25 \$1;
#X msg 512 230 26 \$1;
#X msg 572 230 27 \$1;
#X msg 32 186 127;
#X msg 92 186 127;
#X msg 152 186 127;
#X msg 212 186 127;
#X msg 272 186 127;
#X msg 332 186 127;
#X msg 392 186 127;
#X msg 452 186 127;
#X msg 512 186 127;
#X msg 572 186 127;
#X obj 32 252 s \$0-key;
#X obj 92 252 s \$0-key;
#X obj 152 252 s \$0-key;
#X obj 212 252 s \$0-key;
#X obj 272 252 s \$0-key;
#X obj 332 252 s \$0-key;
#X obj 392 252 s \$0-key;
#X obj 452 252 s \$0-key;
#X obj 512 252 s \$0-key;
#X obj 572 252 s \$0-key;
#X connect 0 0 100 0;
#X connect 0 1 1 0;
#X connect 1 0 2 0;
#X connect 2 0 3 0;
#X connect 3 0 4 0;
#X connect 4 0 90 0;
#X connect 5 0 70 0;
#X connect 6 0 80 0;
#X connect 7 0 101 0;
#X connect 7 1 8 0;
#X connect 8 0 9 0;
#X connect 9 0 10 0;
#X connect 10 0 11 0;
#X connect 11 0 91 0;
#X connect 12 0 71 0;
#X connect 13 0 81 0;
#X connect 14 0 102 0;
#X connect 14 1 15 0;
#X connect 15 0 16 0;
#X connect 16 0 17 0;
#X connect 17 0 18 0;
#X connect 18 0 92 0;
#X connect 19 0 72 0;
#X connect 20 0 82 0;
#X connect 21 0 103 0;
#X connect 21 1 22 0;
#X connect 22 0 23 0;
#X connect 23 0 24 0;
#X connect 24 0 25 0;
#X connect 25 0 93 0;
#X connect 26 0 73 0;
#X connect 27 0 83 0;
#X connect 28 0 104 0;
#X connect 28 1 29 0;
#X connect 29 0 30 0;
#X connect 30 0 31 0;
#X connect 31 0 32 0;
#X connect 32 0 94 0;
#X connect 33 0 74 0;
#X connect 34 0 84 0;
#X connect 35 0 105 0;
#X connect 35 1 36 0;
#X connect 36 0 37 0;
#X connect 37 0 38 0;
#X connect 38 0 39 0;
#X connect 39 0 95 0;
#X connect 40 0 75 0;
#X connect 41 0 85 0;
#X connect 42 0 106 0;
#X connect 42 1 43 0;
#X connect 43 0 44 0;
#X connect 44 0 45 0;
#X connect 45 0 46 0;
#X connect 46 0 96 0;
#X connect 47 0 76 0;
#X connect 48 0 86 0;
#X connect 49 0 107 0;
#X connect 49 1 50 0;
#X connect 50 0 51 0;
#X connect 51 0 52 0;
#X connect 52 0 53 0;
#X connect 53 0 97 0;
#X connect 54 0 77 0;
#X connect 55 0 87 0;
#X connect 56 0 108 0;
#X connect 56 1 57 0;
#X connect 57 0 58 0;
#X connect 58 0 59 0;
#X connect 59 0 60 0;
#X connect 60 0 98 0;
#X connect 61 0 78 0;
#X connect 62 0 88 0;
#X connect 63 0 109 0;
#X connect 63 1 64 0;
#X connect 64 0 65 0;
#X connect 65 0 66 0;
#X connect 66 0 67 0;
#X connect 67 0 99 0;
#X connect 68 0 79 0;
#X connect 69 0 89 0;
#X connect 70 0 0 0;
#X connect 71 0 7 0;
#X connect 72 0 14 0;
#X connect 73 0 21 0;
#X connect 74 0 28 0;
#X connect 75 0 35 0;
#X connect 76 0 42 0;
#X connect 77 0 49 0;
#X connect 78 0 56 0;
#X connect 79 0 63 0;
#X connect 80 0 2 0;
#X connect 81 0 9 0;
#X connect 82 0 16 0;
#X connect 83 0 23 0;
#X connect 84 0 30 0;
#X connect 85 0 37 0;
#X connect 86 0 44 0;
#X connect 87 0 51 0;
#X connect 88 0 58 0;
#X connect 89 0 65 0;
#X connect 90 0 110 0;
#X connect 91 0 111 0;
#X connect 92 0 112 0;
#X connect 93 0 113 0;
#X connect 94 0 114 0;
#X connect 95 0 115 0;
#X connect 96 0 116 0;
#X connect 97 0 117 0;
#X connect 98 0 118 0;
#X connect 99 0 119 0;
#X connect 100 0 4 0;
#X connect 101 0 11 0;
#X connect 102 0 18 0;
#X connect 103 0 25 0;
#X connect 104 0 32 0;
#X connect 105 0 39 0;
#X connect 106 0 46 0;
#X connect 107 0 53 0;
#X connect 108 0 60 0;
#X connect 109 0 67 0;
#X restore 12 32 pd q-p;
#N canvas 4 23 718 321 1-0 0;
#X obj 32 120 t b b;
#X msg 51 142 stop;
#X obj 51 164 del 50;
#X msg 51 186 0;
#X obj 32 208 change;
#X obj 32 32 key;
#X obj 32 76 keyup;
#X obj 92 120 t b b;
#X msg 111 142 stop;
#X obj 111 164 del 50;
#X msg 111 186 0;
#X obj 92 208 change;
#X obj 92 32 key;
#X obj 92 76 keyup;
#X obj 152 120 t b b;
#X msg 171 142 stop;
#X obj 171 164 del 50;
#X msg 171 186 0;
#X obj 152 208 change;
#X obj 152 32 key;
#X obj 152 76 keyup;
#X obj 212 120 t b b;
#X msg 231 142 stop;
#X obj 231 164 del 50;
#X msg 231 186 0;
#X obj 212 208 change;
#X obj 212 32 key;
#X obj 212 76 keyup;
#X obj 272 120 t b b;
#X msg 291 142 stop;
#X obj 291 164 del 50;
#X msg 291 186 0;
#X obj 272 208 change;
#X obj 272 32 key;
#X obj 272 76 keyup;
#X obj 332 120 t b b;
#X msg 351 142 stop;
#X obj 351 164 del 50;
#X msg 351 186 0;
#X obj 332 208 change;
#X obj 332 32 key;
#X obj 332 76 keyup;
#X obj 392 120 t b b;
#X msg 411 142 stop;
#X obj 411 164 del 50;
#X msg 411 186 0;
#X obj 392 208 change;
#X obj 392 32 key;
#X obj 392 76 keyup;
#X obj 452 120 t b b;
#X msg 471 142 stop;
#X obj 471 164 del 50;
#X msg 471 186 0;
#X obj 452 208 change;
#X obj 452 32 key;
#X obj 452 76 keyup;
#X obj 512 120 t b b;
#X msg 531 142 stop;
#X obj 531 164 del 50;
#X msg 531 186 0;
#X obj 512 208 change;
#X obj 512 32 key;
#X obj 512 76 keyup;
#X obj 572 120 t b b;
#X msg 591 142 stop;
#X obj 591 164 del 50;
#X msg 591 186 0;
#X obj 572 208 change;
#X obj 572 32 key;
#X obj 572 76 keyup;
#X obj 32 54 sel 49;
#X obj 92 54 sel 50;
#X obj 152 54 sel 51;
#X obj 212 54 sel 52;
#X obj 272 54 sel 53;
#X obj 332 54 sel 54;
#X obj 392 54 sel 55;
#X obj 452 54 sel 56;
#X obj 512 54 sel 57;
#X obj 572 54 sel 48;
#X obj 32 98 sel 49;
#X obj 92 98 sel 50;
#X obj 152 98 sel 51;
#X obj 212 98 sel 52;
#X obj 272 98 sel 53;
#X obj 332 98 sel 54;
#X obj 392 98 sel 55;
#X obj 452 98 sel 56;
#X obj 512 98 sel 57;
#X obj 572 98 sel 48;
#X msg 32 230 28 \$1;
#X msg 92 230 29 \$1;
#X msg 152 230 30 \$1;
#X msg 212 230 31 \$1;
#X msg 272 230 32 \$1;
#X msg 332 230 33 \$1;
#X msg 392 230 34 \$1;
#X msg 452 230 35 \$1;
#X msg 512 230 36 \$1;
#X msg 572 230 37 \$1;
#X msg 32 186 127;
#X msg 92 186 127;
#X msg 152 186 127;
#X msg 212 186 127;
#X msg 272 186 127;
#X msg 332 186 127;
#X msg 392 186 127;
#X msg 452 186 127;
#X msg 512 186 127;
#X msg 572 186 127;
#X obj 32 252 s \$0-key;
#X obj 92 252 s \$0-key;
#X obj 152 252 s \$0-key;
#X obj 212 252 s \$0-key;
#X obj 272 252 s \$0-key;
#X obj 332 252 s \$0-key;
#X obj 392 252 s \$0-key;
#X obj 452 252 s \$0-key;
#X obj 512 252 s \$0-key;
#X obj 572 252 s \$0-key;
#X connect 0 0 100 0;
#X connect 0 1 1 0;
#X connect 1 0 2 0;
#X connect 2 0 3 0;
#X connect 3 0 4 0;
#X connect 4 0 90 0;
#X connect 5 0 70 0;
#X connect 6 0 80 0;
#X connect 7 0 101 0;
#X connect 7 1 8 0;
#X connect 8 0 9 0;
#X connect 9 0 10 0;
#X connect 10 0 11 0;
#X connect 11 0 91 0;
#X connect 12 0 71 0;
#X connect 13 0 81 0;
#X connect 14 0 102 0;
#X connect 14 1 15 0;
#X connect 15 0 16 0;
#X connect 16 0 17 0;
#X connect 17 0 18 0;
#X connect 18 0 92 0;
#X connect 19 0 72 0;
#X connect 20 0 82 0;
#X connect 21 0 103 0;
#X connect 21 1 22 0;
#X connect 22 0 23 0;
#X connect 23 0 24 0;
#X connect 24 0 25 0;
#X connect 25 0 93 0;
#X connect 26 0 73 0;
#X connect 27 0 83 0;
#X connect 28 0 104 0;
#X connect 28 1 29 0;
#X connect 29 0 30 0;
#X connect 30 0 31 0;
#X connect 31 0 32 0;
#X connect 32 0 94 0;
#X connect 33 0 74 0;
#X connect 34 0 84 0;
#X connect 35 0 105 0;
#X connect 35 1 36 0;
#X connect 36 0 37 0;
#X connect 37 0 38 0;
#X connect 38 0 39 0;
#X connect 39 0 95 0;
#X connect 40 0 75 0;
#X connect 41 0 85 0;
#X connect 42 0 106 0;
#X connect 42 1 43 0;
#X connect 43 0 44 0;
#X connect 44 0 45 0;
#X connect 45 0 46 0;
#X connect 46 0 96 0;
#X connect 47 0 76 0;
#X connect 48 0 86 0;
#X connect 49 0 107 0;
#X connect 49 1 50 0;
#X connect 50 0 51 0;
#X connect 51 0 52 0;
#X connect 52 0 53 0;
#X connect 53 0 97 0;
#X connect 54 0 77 0;
#X connect 55 0 87 0;
#X connect 56 0 108 0;
#X connect 56 1 57 0;
#X connect 57 0 58 0;
#X connect 58 0 59 0;
#X connect 59 0 60 0;
#X connect 60 0 98 0;
#X connect 61 0 78 0;
#X connect 62 0 88 0;
#X connect 63 0 109 0;
#X connect 63 1 64 0;
#X connect 64 0 65 0;
#X connect 65 0 66 0;
#X connect 66 0 67 0;
#X connect 67 0 99 0;
#X connect 68 0 79 0;
#X connect 69 0 89 0;
#X connect 70 0 0 0;
#X connect 71 0 7 0;
#X connect 72 0 14 0;
#X connect 73 0 21 0;
#X connect 74 0 28 0;
#X connect 75 0 35 0;
#X connect 76 0 42 0;
#X connect 77 0 49 0;
#X connect 78 0 56 0;
#X connect 79 0 63 0;
#X connect 80 0 2 0;
#X connect 81 0 9 0;
#X connect 82 0 16 0;
#X connect 83 0 23 0;
#X connect 84 0 30 0;
#X connect 85 0 37 0;
#X connect 86 0 44 0;
#X connect 87 0 51 0;
#X connect 88 0 58 0;
#X connect 89 0 65 0;
#X connect 90 0 110 0;
#X connect 91 0 111 0;
#X connect 92 0 112 0;
#X connect 93 0 113 0;
#X connect 94 0 114 0;
#X connect 95 0 115 0;
#X connect 96 0 116 0;
#X connect 97 0 117 0;
#X connect 98 0 118 0;
#X connect 99 0 119 0;
#X connect 100 0 4 0;
#X connect 101 0 11 0;
#X connect 102 0 18 0;
#X connect 103 0 25 0;
#X connect 104 0 32 0;
#X connect 105 0 39 0;
#X connect 106 0 46 0;
#X connect 107 0 53 0;
#X connect 108 0 60 0;
#X connect 109 0 67 0;
#X restore 12 12 pd 1-0;
#X restore 33 -100 pd keyboard;
#X obj 33 -59 spigot;
#X obj 95 -74 tgl 17 0 empty empty KEYBOARD 20 8 0 10 -262144 -1 -1
0 1;
#X obj 175 -137 tgl 17 0 empty empty PLAY_SCALE 20 8 0 10 -262144 -1
-1 1 1;
#X obj 175 -115 metro 250;
#X msg 175 -52 \$1 127 \, \$1 0;
#X obj 175 -94 random 15;
#X obj 175 -73 + 15;
#X text 453 366 Email: mianmogra94@gmail.com;
#X text 453 381 GitHub: github.com/MikeMorenoAudio;
#X text 453 406 Facebook: fb.com/MikeMorenoAudio;
#X text 453 436 WordPress: mikemorenoaudio.wordpress.com;
#X text 453 451 PatchStorage: patchstorage.com/author/mianmogra;
#X text 367 28 INLET 1: Frequency;
#X text 367 64 INLET 2: Trigger / Velocity;
#X text 377 80 Trigger the instrument by sending a number from 1 to
127;
#X text 377 43 An incoming float or signal sets the frequency.;
#X text 357 108 Activate the KEYBOARD tgl to play the instrument with
your computer keyboard.;
#X obj 33 232 mtof;
#X obj 33 211 unpack f f;
#X text 453 351 Miguel Moreno 2019;
#X obj 33 295 throw~ \$0-M;
#X obj 113 295 throw~ \$0-M;
#X obj 193 295 throw~ \$0-M;
#X obj 273 295 throw~ \$0-M;
#X obj 353 295 throw~ \$0-M;
#X obj 433 295 throw~ \$0-M;
#X obj 33 318 catch~ \$0-M;
#X text 453 421 Youtube: youtube.com/c/mikemorenoaudio;
#X text 377 3 A synthesized marimba instrument using additive synthesis.
;
#X obj 33 253 chimes~;
#X obj 113 253 chimes~;
#X obj 193 253 chimes~;
#X obj 273 253 chimes~;
#X obj 353 253 chimes~;
#X obj 433 253 chimes~;
#X obj 33 88 + 24;
#X text 453 331 [chimes~] version 1;
#X text 367 -12 [chimes~];
#X msg 283 591 disconnect;
#X obj 644 591 *~ 1;
#X msg 292 808 disconnect;
#X obj 651 810 *~ 1;
#X obj 649 655 ggee/streamout~;
#X obj 656 874 ggee/streamout~;
#X obj 669 555 tgl 15 0 empty empty empty 17 7 0 10 -262144 -1 -1 1
1;
#X obj 674 771 tgl 15 0 empty empty empty 17 7 0 10 -262144 -1 -1 1
1;
#X symbolatom 31 485 20 0 0 0 - - -;
#X msg 399 590 connect \$1 3222;
#X msg 406 809 connect \$1 3223;
#X obj 291 779 r disconnect;
#X obj 284 562 r disconnect;
#X text 181 486 <- Type IPv4 address of receiver here \, followed by
<RETURN>;
#X msg 31 513 set \$1;
#X symbolatom 31 562 20 0 0 0 - - -;
#X obj 56 656 bng 15 250 50 0 connect_bang empty empty 17 7 0 10 -262144
-1 -1;
#X obj 399 563 r connect;
#X obj 405 778 r connect;
#X obj 31 592 s connect;
#X obj 49 538 bng 15 250 50 0 empty connect_bang empty 17 7 0 10 -262144
-1 -1;
#X obj 56 708 bng 15 250 50 0 disconnect empty empty 17 7 0 10 -262144
-1 -1;
#X text 78 654 <- Bang here to connect to receiver;
#X text 78 705 <- Bang here to disconnect from receiver;
#X obj 669 498 loadbang;
#X msg 669 519 1;
#X obj 674 712 loadbang;
#X msg 674 733 1;
#X msg 117 324 connect gui.local 3224;
#X obj 165 372 ggee/streamout~;
#X connect 0 0 1 0;
#X connect 1 0 6 0;
#X connect 2 0 25 0;
#X connect 5 0 75 0;
#X connect 6 0 94 0;
#X connect 6 0 96 0;
#X connect 7 0 0 0;
#X connect 8 0 9 0;
#X connect 9 0 11 0;
#X connect 10 0 24 0;
#X connect 10 1 13 0;
#X connect 12 0 52 1;
#X connect 13 0 12 0;
#X connect 13 1 52 1;
#X connect 14 0 15 0;
#X connect 15 0 16 0;
#X connect 16 0 90 0;
#X connect 17 0 18 0;
#X connect 18 0 16 1;
#X connect 19 0 14 0;
#X connect 19 1 17 0;
#X connect 20 0 21 0;
#X connect 22 0 23 0;
#X connect 23 0 73 0;
#X connect 24 0 19 0;
#X connect 25 0 3 0;
#X connect 26 0 52 0;
#X connect 26 1 52 1;
#X connect 27 0 85 0;
#X connect 28 0 76 0;
#X connect 29 0 31 0;
#X connect 30 0 27 0;
#X connect 30 1 85 1;
#X connect 31 0 30 0;
#X connect 32 0 86 0;
#X connect 33 0 77 0;
#X connect 34 0 40 0;
#X connect 35 0 32 0;
#X connect 35 1 86 1;
#X connect 36 0 87 0;
#X connect 37 0 78 0;
#X connect 38 0 41 0;
#X connect 39 0 36 0;
#X connect 39 1 87 1;
#X connect 40 0 35 0;
#X connect 41 0 39 0;
#X connect 42 0 88 0;
#X connect 43 0 79 0;
#X connect 44 0 50 0;
#X connect 45 0 42 0;
#X connect 45 1 88 1;
#X connect 46 0 89 0;
#X connect 47 0 80 0;
#X connect 48 0 51 0;
#X connect 49 0 46 0;
#X connect 49 1 89 1;
#X connect 50 0 45 0;
#X connect 51 0 49 0;
#X connect 52 0 20 0;
#X connect 52 1 20 1;
#X connect 52 2 20 2;
#X connect 53 0 55 0;
#X connect 55 0 10 0;
#X connect 56 0 55 1;
#X connect 57 0 58 0;
#X connect 58 0 60 0;
#X connect 59 0 10 0;
#X connect 60 0 61 0;
#X connect 61 0 59 0;
#X connect 72 0 84 0;
#X connect 73 0 72 0;
#X connect 73 1 84 1;
#X connect 81 0 7 0;
#X connect 81 0 122 0;
#X connect 84 0 5 0;
#X connect 85 0 28 0;
#X connect 86 0 33 0;
#X connect 87 0 37 0;
#X connect 88 0 43 0;
#X connect 89 0 47 0;
#X connect 90 0 52 0;
#X connect 93 0 97 0;
#X connect 94 0 97 0;
#X connect 95 0 98 0;
#X connect 96 0 98 0;
#X connect 99 0 94 1;
#X connect 100 0 96 1;
#X connect 101 0 107 0;
#X connect 102 0 97 0;
#X connect 103 0 98 0;
#X connect 104 0 95 0;
#X connect 105 0 93 0;
#X connect 107 0 108 0;
#X connect 108 0 112 0;
#X connect 110 0 102 0;
#X connect 111 0 103 0;
#X connect 113 0 108 0;
#X connect 117 0 118 0;
#X connect 118 0 99 0;
#X connect 119 0 120 0;
#X connect 120 0 100 0;
#X connect 121 0 122 0;
#X coords 0 1071 1 1070 100 100 0;
