#N canvas 715 129 939 1300 12;
#X floatatom 562 489 5 0 0 0 - - -;
#X obj 613 443 + 1;
#N canvas 124 506 450 366 calc-xy 0;
#X obj 129 23 inlet;
#X obj 91 283 outlet;
#X obj 210 286 outlet;
#X obj 95 136 mod 10;
#X obj 209 135 div 10;
#X obj 210 178 * 50;
#X obj 137 96 t f f;
#X obj 91 179 * 75;
#X obj 209 224 + 250;
#X obj 91 229 + 50;
#X obj 129 61 - 7;
#X connect 0 0 10 0;
#X connect 3 0 7 0;
#X connect 4 0 5 0;
#X connect 5 0 8 0;
#X connect 6 0 3 0;
#X connect 6 1 4 0;
#X connect 7 0 9 0;
#X connect 8 0 2 0;
#X connect 9 0 1 0;
#X connect 10 0 6 0;
#X restore 592 606 pd calc-xy;
#X obj 577 657 pack f f f f;
#X obj 570 560 t f f f;
#X obj 707 605 mod 2;
#X obj 22 53 bng 30 250 50 0 empty empty empty 17 7 0 10 -262144 -1
-1;
#X text 54 56 <-- RESET;
#X obj 600 88 tgl 30 0 empty empty empty 17 7 0 10 -262144 -1 -1 0
1;
#X text 197 50 <-- ADD 1;
#X obj 164 47 bng 30 250 50 0 empty empty empty 17 7 0 10 -262144 -1
-1;
#X text 339 49 <-- Add 50;
#X obj 306 48 bng 30 250 50 0 empty empty empty 17 7 0 10 -262144 -1
-1;
#X obj 559 397 metro 10000;
#X msg 306 105 1;
#X obj 602 171 s startbang;
#X msg 556 340 stop;
#X obj 559 445 f 0;
#X msg 61 140 0;
#X obj 754 255 >= 50;
#X obj 754 288 sel 1;
#X floatatom 635 324 5 1 15 0 - - -;
#X obj 634 252 loadbang;
#X obj 601 253 bng 15 250 50 0 empty empty empty 17 7 0 10 -262144
-1 -1;
#X msg 635 290 10, f 7;
#X obj 635 360 * 1000;
#X obj 249 887 r~ leftchan;
#X obj 388 891 r~ rightchan;
#X obj 565 522 + 7;
#X msg 572 715 \; pd-driver obj \$2 \$3 payload \; pd-driver connect
4 0 \$1 0 \; pd-driver connect \$1 0 \$4 0;
#X obj 359 988 dac~;
#X obj 708 640 + 5;
#X obj 706 570 + 1;
#X msg 169 100 1;
#X obj 501 940 bng 15 250 50 0 empty empty empty 17 7 0 10 -262144
-1 -1;
#N canvas 0 50 450 250 (subpatch) 0;
#X array array2 44100 float 2;
#X coords 0 1 44100 -1 800 140 1 0 0;
#X restore 89 1093 graph;
#X obj 505 996 tabwrite~ array2;
#X obj 291 943 *~ 1;
#X obj 389 935 *~ 1;
#X obj 537 830 bng 15 250 50 0 empty empty empty 17 7 0 10 -262144
-1 -1;
#X msg 578 828 stop;
#X obj 521 888 metro 2000;
#X obj 448 48 bng 30 250 50 0 empty empty empty 17 7 0 10 -262144 -1
-1;
#X obj 598 11 r startmusic;
#X obj 151 140 s startmusic;
#X obj 291 144 s startmusic;
#X text 631 92 <-- STOP/START MUSIC;
#X obj 786 94 tgl 30 0 empty empty empty 17 7 0 10 -262144 -1 -1 1
1;
#X msg 786 166 \; pd dsp \$1;
#X text 820 92 <-- START/STOP DSP;
#X obj 784 8 loadbang;
#X msg 784 38 1;
#X text 480 52 <-- STOP ADD;
#N canvas 204 233 1277 1178 create-drivers 0;
#X msg 111 155 3;
#X obj 110 197 until;
#X obj 163 240 + 1;
#X floatatom 107 280 5 0 0 0 - - -;
#X msg 184 158 1;
#X obj 109 240 f 1;
#X msg 349 319 rm -rf driver\$1.pd;
#X obj 350 344 ggee/shell;
#X obj 350 369 print shell;
#X msg 365 451 add #N canvas 231 671 450 300 12;
#X msg 352 425 clear;
#X obj 352 515 textfile;
#X msg 378 480 write driver\$1.pd;
#X obj 277 423 t f b b;
#X obj 352 547 print textfile;
#X obj 354 771 pd~ -ninsig 0 -noutsig 2;
#X msg 375 680 pd~ stop;
#X msg 350 620 pd~ start driver1.pd;
#X obj 355 822 print pd~1;
#X obj 436 859 s~ leftchan;
#X obj 458 823 s~ rightchan;
#X text 211 1059 inlet to trigger;
#X text 204 1075 trigger(R) to msg;
#X text 190 1090 trigger(L) to metro;
#X text 231 1104 msg to number;
#X text 218 1119 metro to number;
#X msg 335 920 \; pd-driver\$1.pd clear \; pd-driver\$1.pd obj 375
50 receive startbang \; pd-driver\$1.pd obj 375 100 trigger a b \;
pd-driver\$1.pd obj 300 150 metro 450 \; pd-driver\$1.pd msg 450 150
set 100 \; pd-driver\$1.pd floatatom 375 200 5 0 0 0 - - - \; pd-driver\$1.pd
obj 300 550 send~ leftchan \; pd-driver\$1.pd obj 450 550 send~ rightchan
\; pd-driver\$1.pd connect 0 0 1 0 \; pd-driver\$1.pd connect 1 1 3
0 \; pd-driver\$1.pd connect 1 0 2 0 \; pd-driver\$1.pd connect 3 0
4 0 \; pd-driver\$1.pd connect 2 0 4 0;
#X obj 108 321 t f f f f;
#X msg 385 745 startbang bang;
#X obj 246 578 sel 1 2 3;
#X obj 599 768 pd~ -ninsig 0 -noutsig 2;
#X msg 618 681 pd~ stop;
#X obj 681 856 s~ leftchan;
#X obj 703 820 s~ rightchan;
#X msg 633 743 startbang bang;
#X obj 855 768 pd~ -ninsig 0 -noutsig 2;
#X msg 870 686 pd~ stop;
#X obj 937 856 s~ leftchan;
#X obj 959 820 s~ rightchan;
#X msg 888 744 startbang bang;
#X msg 596 619 pd~ start driver2.pd;
#X msg 854 617 pd~ start driver3.pd;
#X obj 600 819 print pd~2;
#X obj 855 819 print pd~3;
#X obj 112 107 t b b;
#X obj 110 36 inlet;
#X obj 385 719 r startbang;
#X obj 634 718 r startbang;
#X obj 888 718 r startbang;
#X obj 376 656 r killbang;
#X obj 617 657 r killbang;
#X obj 871 661 r killbang;
#X connect 0 0 1 0;
#X connect 1 0 5 0;
#X connect 2 0 5 1;
#X connect 3 0 27 0;
#X connect 4 0 5 1;
#X connect 5 0 2 0;
#X connect 5 0 3 0;
#X connect 6 0 7 0;
#X connect 7 0 8 0;
#X connect 9 0 11 0;
#X connect 10 0 11 0;
#X connect 11 0 14 0;
#X connect 12 0 11 0;
#X connect 13 0 12 0;
#X connect 13 1 9 0;
#X connect 13 2 10 0;
#X connect 15 0 18 0;
#X connect 15 1 19 0;
#X connect 15 2 20 0;
#X connect 16 0 15 0;
#X connect 17 0 15 0;
#X connect 27 0 26 0;
#X connect 27 1 29 0;
#X connect 27 2 13 0;
#X connect 27 3 6 0;
#X connect 28 0 15 0;
#X connect 29 0 17 0;
#X connect 29 1 40 0;
#X connect 29 2 41 0;
#X connect 30 0 42 0;
#X connect 30 1 32 0;
#X connect 30 2 33 0;
#X connect 31 0 30 0;
#X connect 34 0 30 0;
#X connect 35 0 43 0;
#X connect 35 1 37 0;
#X connect 35 2 38 0;
#X connect 36 0 35 0;
#X connect 39 0 35 0;
#X connect 40 0 30 0;
#X connect 41 0 35 0;
#X connect 44 0 0 0;
#X connect 44 1 4 0;
#X connect 45 0 44 0;
#X connect 46 0 28 0;
#X connect 47 0 34 0;
#X connect 48 0 39 0;
#X connect 49 0 16 0;
#X connect 50 0 31 0;
#X connect 51 0 36 0;
#X restore 76 392 pd create-drivers;
#X connect 0 0 28 0;
#X connect 1 0 17 1;
#X connect 1 0 19 0;
#X connect 2 0 3 1;
#X connect 2 1 3 2;
#X connect 3 0 29 0;
#X connect 4 0 3 0;
#X connect 4 1 2 0;
#X connect 4 2 32 0;
#X connect 5 0 31 0;
#X connect 6 0 18 0;
#X connect 8 0 15 0;
#X connect 10 0 17 0;
#X connect 10 0 33 0;
#X connect 12 0 14 0;
#X connect 13 0 17 0;
#X connect 14 0 13 0;
#X connect 14 0 45 0;
#X connect 16 0 13 0;
#X connect 17 0 0 0;
#X connect 17 0 1 0;
#X connect 18 0 17 1;
#X connect 18 0 53 0;
#X connect 19 0 20 0;
#X connect 20 0 16 0;
#X connect 21 0 25 0;
#X connect 22 0 24 0;
#X connect 23 0 24 0;
#X connect 24 0 21 0;
#X connect 25 0 13 1;
#X connect 26 0 37 0;
#X connect 27 0 38 0;
#X connect 28 0 4 0;
#X connect 31 0 3 3;
#X connect 32 0 5 0;
#X connect 33 0 44 0;
#X connect 34 0 36 0;
#X connect 37 0 30 0;
#X connect 38 0 30 1;
#X connect 38 0 36 0;
#X connect 39 0 41 0;
#X connect 40 0 41 0;
#X connect 41 0 34 0;
#X connect 42 0 16 0;
#X connect 43 0 8 0;
#X connect 47 0 48 0;
#X connect 50 0 51 0;
#X connect 51 0 47 0;
