#N canvas 149 121 1389 1300 12;
#X floatatom 562 489 5 0 0 0 - - -;
#X obj 613 443 + 1;
#N canvas 124 506 450 366 calc-xy 0;
#X obj 129 23 inlet;
#X obj 91 283 outlet;
#X obj 210 286 outlet;
#X obj 95 136 mod 10;
#X obj 209 135 div 10;
#X obj 210 178 * 50;
#X obj 137 96 t f f;
#X obj 91 179 * 75;
#X obj 209 224 + 250;
#X obj 91 229 + 50;
#X obj 129 61 - 7;
#X connect 0 0 10 0;
#X connect 3 0 7 0;
#X connect 4 0 5 0;
#X connect 5 0 8 0;
#X connect 6 0 3 0;
#X connect 6 1 4 0;
#X connect 7 0 9 0;
#X connect 8 0 2 0;
#X connect 9 0 1 0;
#X connect 10 0 6 0;
#X restore 588 736 pd calc-xy;
#X obj 566 690 t f f f;
#X obj 703 735 mod 2;
#X obj 22 53 bng 30 250 50 0 empty empty empty 17 7 0 10 -262144 -1
-1;
#X text 54 56 <-- RESET;
#X obj 600 88 tgl 30 0 empty empty empty 17 7 0 10 -262144 -1 -1 0
1;
#X text 197 50 <-- ADD 1;
#X obj 164 47 bng 30 250 50 0 empty empty empty 17 7 0 10 -262144 -1
-1;
#X obj 306 48 bng 30 250 50 0 empty empty empty 17 7 0 10 -262144 -1
-1;
#X obj 559 397 metro 10000;
#X msg 306 105 1;
#X obj 602 171 s startbang;
#X msg 556 340 stop;
#X obj 559 445 f 0;
#X msg 61 140 0;
#X obj 754 288 sel 1;
#X floatatom 635 324 5 1 15 0 - - -;
#X obj 634 252 loadbang;
#X obj 601 253 bng 15 250 50 0 empty empty empty 17 7 0 10 -262144
-1 -1;
#X msg 635 290 10, f 7;
#X obj 635 360 * 1000;
#X obj 108 934 r~ leftchan;
#X obj 247 938 r~ rightchan;
#X obj 218 1035 dac~;
#X msg 169 100 1;
#X obj 360 987 bng 15 250 50 0 empty empty empty 17 7 0 10 -262144
-1 -1;
#N canvas 0 50 450 250 (subpatch) 0;
#X array array2 44100 float 2;
#X coords 0 1 44100 -1 800 140 1 0 0;
#X restore 89 1093 graph;
#X obj 364 1043 tabwrite~ array2;
#X obj 150 990 *~ 1;
#X obj 248 982 *~ 1;
#X obj 396 877 bng 15 250 50 0 empty empty empty 17 7 0 10 -262144
-1 -1;
#X msg 437 875 stop;
#X obj 380 935 metro 2000;
#X obj 448 48 bng 30 250 50 0 empty empty empty 17 7 0 10 -262144 -1
-1;
#X obj 598 11 r startmusic;
#X obj 151 140 s startmusic;
#X obj 291 144 s startmusic;
#X text 631 92 <-- STOP/START MUSIC;
#X obj 786 94 tgl 30 0 empty empty empty 17 7 0 10 -262144 -1 -1 1
1;
#X msg 786 166 \; pd dsp \$1;
#X text 820 92 <-- START/STOP DSP;
#X obj 784 8 loadbang;
#X msg 784 38 1;
#X text 480 52 <-- STOP ADD;
#N canvas 187 209 1277 1178 create-drivers 1;
#X msg 111 155 3;
#X obj 110 197 until;
#X obj 163 240 + 1;
#X floatatom 107 280 5 0 0 0 - - -;
#X msg 184 158 1, f 5;
#X obj 109 240 f 1;
#X obj 350 344 ggee/shell;
#X obj 350 369 print shell;
#X msg 348 413 clear;
#X obj 348 503 textfile;
#X msg 374 468 write driver\$1.pd;
#X obj 273 411 t f b b;
#X obj 348 535 print textfile;
#X obj 157 906 pd~ -ninsig 0 -noutsig 2;
#X msg 312 877 pd~ stop;
#X obj 158 955 print pd~1;
#X obj 580 1144 s~ leftchan;
#X obj 698 1144 s~ rightchan;
#X obj 293 571 sel 1 2 3;
#X obj 591 896 pd~ -ninsig 0 -noutsig 2;
#X msg 747 870 pd~ stop;
#X obj 1043 902 pd~ -ninsig 0 -noutsig 2;
#X msg 1195 876 pd~ stop;
#X obj 592 947 print pd~2;
#X obj 1043 953 print pd~3;
#X obj 112 107 t b b;
#X obj 110 36 inlet;
#X obj 188 852 r startbang;
#X obj 626 846 r startbang;
#X obj 1076 852 r startbang;
#X obj 313 853 r killbang;
#X obj 746 846 r killbang;
#X obj 1196 851 r killbang;
#X obj 615 1094 *~ 1;
#X obj 704 1091 *~ 1;
#N canvas 449 423 1050 857 create-msgs 0;
#X obj 50 3 inlet;
#X obj 808 563 outlet;
#X text 574 471 inlet to trigger;
#X text 539 508 trigger(R) to msg;
#X text 511 558 trigger(L) to metro;
#X text 486 605 msg to number;
#X text 469 655 metro to number;
#X msg 846 97 \; msg-out \$1 pd-driver\$1.pd clear;
#X msg 700 146 \; msg-out \$1 pd-driver\$1.pd obj 375 50 receive startbang
;
#X msg 601 187 \; msg-out \$1 pd-driver\$1.pd obj 375 100 trigger a
b, f 50;
#X msg 497 230 \; msg-out \$1 pd-driver\$1.pd obj 300 150 metro 450
, f 50;
#X msg 429 273 \; msg-out \$1 pd-driver\$1.pd msg 450 150 set 100,
f 50;
#X msg 378 322 \; msg-out \$1 pd-driver\$1.pd floatatom 375 200 5 0
0 0 - - -;
#X msg 324 371 \; msg-out \$1 pd-driver\$1.pd obj 375 550 dac~, f
50;
#X msg 207 459 \; msg-out \$1 pd-driver\$1.pd connect 0 0 1 0, f 50
;
#X msg 171 502 \; msg-out \$1 pd-driver\$1.pd connect 1 1 3 0, f 50
;
#X msg 140 551 \; msg-out \$1 pd-driver\$1.pd connect 1 0 2 0, f 50
;
#X msg 115 597 \; msg-out \$1 pd-driver\$1.pd connect 3 0 4 0, f 50
;
#X msg 96 643 \; msg-out \$1 pd-driver\$1.pd connect 2 0 4 0, f 50
;
#X obj 766 477 r msg-out;
#X obj 807 522 route;
#X text 668 158 0;
#X text 573 201 1;
#X text 477 242 2;
#X text 408 284 3;
#X text 352 330 4;
#X text 302 379 5;
#X text 235 423 6;
#X text 58 703 7;
#X msg 47 744 \; msg-out \$1 pd-driver\$1.pd connect 0 0 6 0;
#X text 365 751 startbang to dsp msg;
#X text 340 800 dsp msg to send pd;
#X msg 22 793 \; msg-out \$1 pd-driver\$1.pd connect 6 0 7 0;
#X obj 66 43 t f f f f f f f f f f f f f f f f f, f 133;
#X msg 256 411 \; msg-out \$1 pd-driver\$1.pd msg 50 75 dsp 1, f 50
;
#X msg 75 698 \; msg-out \$1 pd-driver\$1.pd obj 50 125 send pd;
#X connect 0 0 33 0;
#X connect 19 0 20 0;
#X connect 20 0 1 0;
#X connect 33 0 32 0;
#X connect 33 1 29 0;
#X connect 33 2 35 0;
#X connect 33 3 18 0;
#X connect 33 4 17 0;
#X connect 33 5 16 0;
#X connect 33 6 15 0;
#X connect 33 7 14 0;
#X connect 33 8 34 0;
#X connect 33 9 13 0;
#X connect 33 10 12 0;
#X connect 33 11 11 0;
#X connect 33 12 10 0;
#X connect 33 13 9 0;
#X connect 33 14 8 0;
#X connect 33 15 7 0;
#X connect 33 16 20 1;
#X restore 36 754 pd create-msgs;
#X msg 361 439 add #N canvas 87 610 844 623 12;
#X msg 36 719 1;
#X msg 466 716 2;
#X msg 923 720 3;
#X obj 237 46 bng 15 250 50 0 empty empty empty 17 7 0 10 -262144 -1
-1;
#X msg 349 319 rm driver\$1.pd;
#X obj 762 145 bng 15 250 50 0 empty empty empty 17 7 0 10 -262144
-1 -1;
#X obj 762 165 s killbang;
#X obj 36 683 delay 3000;
#X obj 463 680 delay 3000;
#X obj 923 684 delay 3000;
#X obj 177 790 r addmsg;
#X obj 177 815 route 1;
#X obj 615 786 r addmsg;
#X obj 615 811 route 2;
#X obj 1060 793 r addmsg;
#X obj 1060 818 route 3;
#N canvas 449 423 1050 857 create-msgs 0;
#X obj 50 3 inlet;
#X obj 808 563 outlet;
#X text 574 471 inlet to trigger;
#X text 539 508 trigger(R) to msg;
#X text 511 558 trigger(L) to metro;
#X text 486 605 msg to number;
#X text 469 655 metro to number;
#X msg 846 97 \; msg-out \$1 pd-driver\$1.pd clear;
#X msg 700 146 \; msg-out \$1 pd-driver\$1.pd obj 375 50 receive startbang
;
#X msg 601 187 \; msg-out \$1 pd-driver\$1.pd obj 375 100 trigger a
b, f 50;
#X msg 497 230 \; msg-out \$1 pd-driver\$1.pd obj 300 150 metro 450
, f 50;
#X msg 429 273 \; msg-out \$1 pd-driver\$1.pd msg 450 150 set 100,
f 50;
#X msg 378 322 \; msg-out \$1 pd-driver\$1.pd floatatom 375 200 5 0
0 0 - - -;
#X msg 324 371 \; msg-out \$1 pd-driver\$1.pd obj 375 550 dac~, f
50;
#X msg 207 459 \; msg-out \$1 pd-driver\$1.pd connect 0 0 1 0, f 50
;
#X msg 171 502 \; msg-out \$1 pd-driver\$1.pd connect 1 1 3 0, f 50
;
#X msg 140 551 \; msg-out \$1 pd-driver\$1.pd connect 1 0 2 0, f 50
;
#X msg 115 597 \; msg-out \$1 pd-driver\$1.pd connect 3 0 4 0, f 50
;
#X msg 96 643 \; msg-out \$1 pd-driver\$1.pd connect 2 0 4 0, f 50
;
#X obj 766 477 r msg-out;
#X obj 807 522 route;
#X text 668 158 0;
#X text 573 201 1;
#X text 477 242 2;
#X text 408 284 3;
#X text 352 330 4;
#X text 302 379 5;
#X text 235 423 6;
#X text 58 703 7;
#X msg 47 744 \; msg-out \$1 pd-driver\$1.pd connect 0 0 6 0;
#X text 365 751 startbang to dsp msg;
#X text 340 800 dsp msg to send pd;
#X msg 22 793 \; msg-out \$1 pd-driver\$1.pd connect 6 0 7 0;
#X obj 66 43 t f f f f f f f f f f f f f f f f f, f 133;
#X msg 256 411 \; msg-out \$1 pd-driver\$1.pd msg 50 75 dsp 1, f 50
;
#X msg 75 698 \; msg-out \$1 pd-driver\$1.pd obj 50 125 send pd;
#X connect 0 0 33 0;
#X connect 19 0 20 0;
#X connect 20 0 1 0;
#X connect 33 0 32 0;
#X connect 33 1 29 0;
#X connect 33 2 35 0;
#X connect 33 3 18 0;
#X connect 33 4 17 0;
#X connect 33 5 16 0;
#X connect 33 6 15 0;
#X connect 33 7 14 0;
#X connect 33 8 34 0;
#X connect 33 9 13 0;
#X connect 33 10 12 0;
#X connect 33 11 11 0;
#X connect 33 12 10 0;
#X connect 33 13 9 0;
#X connect 33 14 8 0;
#X connect 33 15 7 0;
#X connect 33 16 20 1;
#X restore 467 747 pd create-msgs;
#N canvas 449 423 1050 857 create-msgs 0;
#X obj 50 3 inlet;
#X obj 808 563 outlet;
#X text 574 471 inlet to trigger;
#X text 539 508 trigger(R) to msg;
#X text 511 558 trigger(L) to metro;
#X text 486 605 msg to number;
#X text 469 655 metro to number;
#X msg 846 97 \; msg-out \$1 pd-driver\$1.pd clear;
#X msg 700 146 \; msg-out \$1 pd-driver\$1.pd obj 375 50 receive startbang
;
#X msg 601 187 \; msg-out \$1 pd-driver\$1.pd obj 375 100 trigger a
b, f 50;
#X msg 497 230 \; msg-out \$1 pd-driver\$1.pd obj 300 150 metro 450
, f 50;
#X msg 429 273 \; msg-out \$1 pd-driver\$1.pd msg 450 150 set 100,
f 50;
#X msg 378 322 \; msg-out \$1 pd-driver\$1.pd floatatom 375 200 5 0
0 0 - - -;
#X msg 324 371 \; msg-out \$1 pd-driver\$1.pd obj 375 550 dac~, f
50;
#X msg 207 459 \; msg-out \$1 pd-driver\$1.pd connect 0 0 1 0, f 50
;
#X msg 171 502 \; msg-out \$1 pd-driver\$1.pd connect 1 1 3 0, f 50
;
#X msg 140 551 \; msg-out \$1 pd-driver\$1.pd connect 1 0 2 0, f 50
;
#X msg 115 597 \; msg-out \$1 pd-driver\$1.pd connect 3 0 4 0, f 50
;
#X msg 96 643 \; msg-out \$1 pd-driver\$1.pd connect 2 0 4 0, f 50
;
#X obj 766 477 r msg-out;
#X obj 807 522 route;
#X text 668 158 0;
#X text 573 201 1;
#X text 477 242 2;
#X text 408 284 3;
#X text 352 330 4;
#X text 302 379 5;
#X text 235 423 6;
#X text 58 703 7;
#X msg 47 744 \; msg-out \$1 pd-driver\$1.pd connect 0 0 6 0;
#X text 365 751 startbang to dsp msg;
#X text 340 800 dsp msg to send pd;
#X msg 22 793 \; msg-out \$1 pd-driver\$1.pd connect 6 0 7 0;
#X obj 66 43 t f f f f f f f f f f f f f f f f f, f 133;
#X msg 256 411 \; msg-out \$1 pd-driver\$1.pd msg 50 75 dsp 1, f 50
;
#X msg 75 698 \; msg-out \$1 pd-driver\$1.pd obj 50 125 send pd;
#X connect 0 0 33 0;
#X connect 19 0 20 0;
#X connect 20 0 1 0;
#X connect 33 0 32 0;
#X connect 33 1 29 0;
#X connect 33 2 35 0;
#X connect 33 3 18 0;
#X connect 33 4 17 0;
#X connect 33 5 16 0;
#X connect 33 6 15 0;
#X connect 33 7 14 0;
#X connect 33 8 34 0;
#X connect 33 9 13 0;
#X connect 33 10 12 0;
#X connect 33 11 11 0;
#X connect 33 12 10 0;
#X connect 33 13 9 0;
#X connect 33 14 8 0;
#X connect 33 15 7 0;
#X connect 33 16 20 1;
#X restore 923 752 pd create-msgs;
#X msg 188 878 startbang \$1;
#X msg 625 871 startbang \$1;
#X msg 1076 878 startbang \$1;
#X obj 107 320 t f f f;
#X msg 153 753 pd~ start -nrt -nogui driver1.pd;
#X msg 588 747 pd~ start -nrt -nogui driver2.pd;
#X msg 1042 751 pd~ start -nrt -nogui driver3.pd;
#X connect 0 0 1 0;
#X connect 1 0 5 0;
#X connect 2 0 5 1;
#X connect 3 0 58 0;
#X connect 4 0 5 1;
#X connect 5 0 2 0;
#X connect 5 0 3 0;
#X connect 6 0 7 0;
#X connect 8 0 9 0;
#X connect 9 0 12 0;
#X connect 10 0 9 0;
#X connect 11 0 10 0;
#X connect 11 1 36 0;
#X connect 11 2 8 0;
#X connect 13 0 15 0;
#X connect 13 1 33 0;
#X connect 13 2 34 0;
#X connect 14 0 13 0;
#X connect 18 0 59 0;
#X connect 18 0 44 0;
#X connect 18 1 60 0;
#X connect 18 1 45 0;
#X connect 18 2 61 0;
#X connect 18 2 46 0;
#X connect 19 0 23 0;
#X connect 19 1 33 0;
#X connect 19 2 34 0;
#X connect 20 0 19 0;
#X connect 21 0 24 0;
#X connect 21 1 33 0;
#X connect 21 2 34 0;
#X connect 22 0 21 0;
#X connect 25 0 0 0;
#X connect 25 1 4 0;
#X connect 26 0 25 0;
#X connect 27 0 55 0;
#X connect 28 0 56 0;
#X connect 29 0 57 0;
#X connect 30 0 14 0;
#X connect 31 0 20 0;
#X connect 32 0 22 0;
#X connect 33 0 16 0;
#X connect 34 0 17 0;
#X connect 35 0 13 0;
#X connect 36 0 9 0;
#X connect 37 0 35 0;
#X connect 38 0 53 0;
#X connect 39 0 54 0;
#X connect 40 0 25 0;
#X connect 41 0 6 0;
#X connect 42 0 43 0;
#X connect 44 0 37 0;
#X connect 45 0 38 0;
#X connect 46 0 39 0;
#X connect 47 0 48 0;
#X connect 48 0 13 0;
#X connect 49 0 50 0;
#X connect 50 0 19 0;
#X connect 51 0 52 0;
#X connect 52 0 21 0;
#X connect 53 0 19 0;
#X connect 54 0 21 0;
#X connect 55 0 13 0;
#X connect 56 0 19 0;
#X connect 57 0 21 0;
#X connect 58 0 18 0;
#X connect 58 1 11 0;
#X connect 59 0 13 0;
#X connect 60 0 19 0;
#X connect 61 0 21 0;
#X restore 67 387 pd create-drivers;
#X obj 562 614 i;
#X obj 801 686 mod 3;
#X obj 801 723 + 1;
#X obj 561 572 / 3;
#X obj 563 526 t f f;
#X obj 588 852 pack f f f f f;
#X msg 588 911 \; addmsg \$5 pd-driver\$5.pd obj \$2 \$3 payload \;
addmsg \$5 pd-driver\$5.pd connect 4 0 \$1 0 \; addmsg \$5 pd-driver\$5.pd
connect \$1 0 5 \$4;
#X obj 1000 95 s killbang;
#X obj 1001 52 bng 30 250 50 0 empty empty empty 17 7 0 10 -262144
-1 -1;
#X obj 754 255 >= 51;
#X text 339 49 <-- Add 51;
#X obj 561 652 + 8;
#X obj 702 700 + 0;
#X text 1036 49 <-- KILL SUBPROCESSES;
#X text 902 431 # PAYLOADS PER SUBPROCESS;
#X text 926 469 Subprocess #1;
#X text 925 504 Subprocess #2;
#X text 928 537 Subprocess #3;
#X floatatom 1042 468 5 0 0 0 - numsub1 -;
#X floatatom 1042 505 5 0 0 0 - numsub2 -;
#X floatatom 1043 539 5 0 0 0 - numsub3 -;
#X obj 969 880 unpack f f f f f;
#X obj 980 983 pack f f;
#X obj 980 1024 route 1 2 3;
#X obj 969 911 - 7;
#X obj 925 1069 s numsub1;
#X obj 1004 1070 s numsub2;
#X obj 1082 1071 s numsub3;
#X obj 80 312 s numsub1;
#X obj 159 313 s numsub2;
#X obj 237 314 s numsub3;
#X obj 998 944 swap;
#X connect 0 0 51 0;
#X connect 1 0 15 1;
#X connect 1 0 56 0;
#X connect 2 0 52 1;
#X connect 2 1 52 2;
#X connect 3 0 52 0;
#X connect 3 1 2 0;
#X connect 3 2 59 0;
#X connect 4 0 52 3;
#X connect 5 0 16 0;
#X connect 7 0 13 0;
#X connect 9 0 15 0;
#X connect 9 0 26 0;
#X connect 10 0 12 0;
#X connect 11 0 15 0;
#X connect 12 0 11 0;
#X connect 12 0 38 0;
#X connect 14 0 11 0;
#X connect 15 0 0 0;
#X connect 15 0 1 0;
#X connect 16 0 15 1;
#X connect 16 0 46 0;
#X connect 16 0 75 0;
#X connect 16 0 76 0;
#X connect 16 0 77 0;
#X connect 17 0 14 0;
#X connect 18 0 22 0;
#X connect 19 0 21 0;
#X connect 20 0 21 0;
#X connect 21 0 18 0;
#X connect 22 0 11 1;
#X connect 23 0 30 0;
#X connect 24 0 31 0;
#X connect 26 0 37 0;
#X connect 27 0 29 0;
#X connect 30 0 25 0;
#X connect 31 0 25 1;
#X connect 31 0 29 0;
#X connect 32 0 34 0;
#X connect 33 0 34 0;
#X connect 34 0 27 0;
#X connect 35 0 14 0;
#X connect 36 0 7 0;
#X connect 40 0 41 0;
#X connect 43 0 44 0;
#X connect 44 0 40 0;
#X connect 47 0 58 0;
#X connect 48 0 49 0;
#X connect 49 0 52 4;
#X connect 50 0 47 0;
#X connect 51 0 50 0;
#X connect 51 1 48 0;
#X connect 52 0 68 0;
#X connect 52 0 53 0;
#X connect 55 0 54 0;
#X connect 56 0 17 0;
#X connect 58 0 3 0;
#X connect 59 0 4 0;
#X connect 68 0 71 0;
#X connect 68 4 78 1;
#X connect 69 0 70 0;
#X connect 70 0 72 0;
#X connect 70 1 73 0;
#X connect 70 2 74 0;
#X connect 71 0 78 0;
#X connect 78 0 69 0;
#X connect 78 1 69 1;
