#N canvas 715 129 939 1300 12;
#N canvas 25 494 839 616 driver 1;
#X obj 375 50 receive startbang;
#X obj 375 100 trigger a b;
#X obj 300 150 metro 450;
#X msg 450 150 set 100;
#X floatatom 375 200 5 0 0 0 - - -;
#X obj 300 550 send~ leftchan;
#X obj 450 550 send~ rightchan;
#X obj 50 250 payload;
#X obj 125 250 payload;
#X obj 200 250 payload;
#X obj 275 250 payload;
#X obj 350 250 payload;
#X obj 425 250 payload;
#X obj 500 250 payload;
#X obj 575 250 payload;
#X obj 650 250 payload;
#X obj 725 250 payload;
#X obj 50 300 payload;
#X obj 125 300 payload;
#X obj 200 300 payload;
#X obj 275 300 payload;
#X obj 350 300 payload;
#X connect 0 0 1 0;
#X connect 1 0 2 0;
#X connect 1 1 3 0;
#X connect 2 0 4 0;
#X connect 3 0 4 0;
#X connect 4 0 7 0;
#X connect 4 0 8 0;
#X connect 4 0 9 0;
#X connect 4 0 10 0;
#X connect 4 0 11 0;
#X connect 4 0 12 0;
#X connect 4 0 13 0;
#X connect 4 0 14 0;
#X connect 4 0 15 0;
#X connect 4 0 16 0;
#X connect 4 0 17 0;
#X connect 4 0 18 0;
#X connect 4 0 19 0;
#X connect 4 0 20 0;
#X connect 4 0 21 0;
#X connect 7 0 5 0;
#X connect 8 0 6 0;
#X connect 9 0 5 0;
#X connect 10 0 6 0;
#X connect 11 0 5 0;
#X connect 12 0 6 0;
#X connect 13 0 5 0;
#X connect 14 0 6 0;
#X connect 15 0 5 0;
#X connect 16 0 6 0;
#X connect 17 0 5 0;
#X connect 18 0 6 0;
#X connect 19 0 5 0;
#X connect 20 0 6 0;
#X connect 21 0 5 0;
#X restore 163 785 pd driver;
#X text 39 676 inlet to trigger;
#X text 32 692 trigger(R) to msg;
#X text 18 707 trigger(L) to metro;
#X text 59 721 msg to number;
#X text 47 737 metro to number;
#X floatatom 562 489 5 0 0 0 - - -;
#X obj 613 443 + 1;
#N canvas 124 506 450 366 calc-xy 0;
#X obj 129 23 inlet;
#X obj 91 283 outlet;
#X obj 210 286 outlet;
#X obj 95 136 mod 10;
#X obj 209 135 div 10;
#X obj 210 178 * 50;
#X obj 137 96 t f f;
#X obj 91 179 * 75;
#X obj 209 224 + 250;
#X obj 91 229 + 50;
#X obj 129 61 - 7;
#X connect 0 0 10 0;
#X connect 3 0 7 0;
#X connect 4 0 5 0;
#X connect 5 0 8 0;
#X connect 6 0 3 0;
#X connect 6 1 4 0;
#X connect 7 0 9 0;
#X connect 8 0 2 0;
#X connect 9 0 1 0;
#X connect 10 0 6 0;
#X restore 592 606 pd calc-xy;
#X obj 577 657 pack f f f f;
#X obj 570 560 t f f f;
#X obj 707 605 mod 2;
#X obj 22 53 bng 30 250 50 0 empty empty empty 17 7 0 10 -262144 -1
-1;
#X text 54 56 <-- RESET;
#X obj 600 88 tgl 30 0 empty empty empty 17 7 0 10 -262144 -1 -1 0
1;
#X text 197 50 <-- ADD 1;
#X obj 164 47 bng 30 250 50 0 empty empty empty 17 7 0 10 -262144 -1
-1;
#X text 339 49 <-- Add 50;
#X obj 306 48 bng 30 250 50 0 empty empty empty 17 7 0 10 -262144 -1
-1;
#X obj 559 397 metro 10000;
#X msg 306 105 1;
#X obj 602 171 s startbang;
#X msg 556 340 stop;
#X obj 559 445 f 0;
#X msg 61 140 0;
#X obj 754 255 >= 50;
#X obj 754 288 sel 1;
#X floatatom 635 324 5 1 15 0 - - -;
#X obj 634 252 loadbang;
#X obj 601 253 bng 15 250 50 0 empty empty empty 17 7 0 10 -262144
-1 -1;
#X msg 635 290 10, f 7;
#X obj 635 360 * 1000;
#X obj 249 887 r~ leftchan;
#X obj 388 891 r~ rightchan;
#X obj 565 522 + 7;
#X msg 572 715 \; pd-driver obj \$2 \$3 payload \; pd-driver connect
4 0 \$1 0 \; pd-driver connect \$1 0 \$4 0;
#X obj 359 988 dac~;
#X obj 708 640 + 5;
#X msg 161 554 \; pd-driver clear \; pd-driver obj 375 50 receive startbang
\; pd-driver obj 375 100 trigger a b \; pd-driver obj 300 150 metro
450 \; pd-driver msg 450 150 set 100 \; pd-driver floatatom 375 200
5 0 0 0 - - - \; pd-driver obj 300 550 send~ leftchan \; pd-driver
obj 450 550 send~ rightchan \; pd-driver connect 0 0 1 0 \; pd-driver
connect 1 1 3 0 \; pd-driver connect 1 0 2 0 \; pd-driver connect 3
0 4 0 \; pd-driver connect 2 0 4 0;
#X obj 706 570 + 1;
#X msg 169 100 1;
#X obj 501 940 bng 15 250 50 0 empty empty empty 17 7 0 10 -262144
-1 -1;
#N canvas 0 50 450 250 (subpatch) 0;
#X array array2 44100 float 2;
#X coords 0 1 44100 -1 800 140 1 0 0;
#X restore 89 1093 graph;
#X obj 505 996 tabwrite~ array2;
#X obj 291 943 *~ 1;
#X obj 389 935 *~ 1;
#X obj 537 830 bng 15 250 50 0 empty empty empty 17 7 0 10 -262144
-1 -1;
#X msg 578 828 stop;
#X obj 521 888 metro 2000;
#X obj 448 48 bng 30 250 50 0 empty empty empty 17 7 0 10 -262144 -1
-1;
#X obj 598 11 r startmusic;
#X obj 151 140 s startmusic;
#X obj 291 144 s startmusic;
#X text 631 92 <-- STOP/START MUSIC;
#X obj 786 94 tgl 30 0 empty empty empty 17 7 0 10 -262144 -1 -1 1
1;
#X msg 786 166 \; pd dsp \$1;
#X text 820 92 <-- START/STOP DSP;
#X obj 784 8 loadbang;
#X msg 784 38 1;
#X text 480 52 <-- STOP ADD;
#X connect 6 0 34 0;
#X connect 7 0 23 1;
#X connect 7 0 25 0;
#X connect 8 0 9 1;
#X connect 8 1 9 2;
#X connect 9 0 35 0;
#X connect 10 0 9 0;
#X connect 10 1 8 0;
#X connect 10 2 39 0;
#X connect 11 0 37 0;
#X connect 12 0 24 0;
#X connect 12 0 38 0;
#X connect 14 0 21 0;
#X connect 16 0 23 0;
#X connect 16 0 40 0;
#X connect 18 0 20 0;
#X connect 19 0 23 0;
#X connect 20 0 19 0;
#X connect 20 0 52 0;
#X connect 22 0 19 0;
#X connect 23 0 6 0;
#X connect 23 0 7 0;
#X connect 24 0 23 1;
#X connect 25 0 26 0;
#X connect 26 0 22 0;
#X connect 27 0 31 0;
#X connect 28 0 30 0;
#X connect 29 0 30 0;
#X connect 30 0 27 0;
#X connect 31 0 19 1;
#X connect 32 0 44 0;
#X connect 33 0 45 0;
#X connect 34 0 10 0;
#X connect 37 0 9 3;
#X connect 39 0 11 0;
#X connect 40 0 51 0;
#X connect 41 0 43 0;
#X connect 44 0 36 0;
#X connect 45 0 36 1;
#X connect 45 0 43 0;
#X connect 46 0 48 0;
#X connect 47 0 48 0;
#X connect 48 0 41 0;
#X connect 49 0 22 0;
#X connect 50 0 14 0;
#X connect 54 0 55 0;
#X connect 57 0 58 0;
#X connect 58 0 54 0;
